<svg id="Layer_1" data-name="Layer 1" xmlns="http://www.w3.org/2000/svg" viewBox="0 0 189.89 183"><defs><style>.cls-1{fill:#fff;}</style></defs><path class="cls-1" d="M221.46,317.17c-5.39,3.74-9.46,7.49-14.26,9.71a27.63,27.63,0,0,1-34.29-9c-7-9.58-6.44-24.12,2.24-33.37,9.81-10.45,20.22-20.37,30.55-30.33,3-2.85,6.53-5.07,9.22-8.95-8.89,2.7-14.35-.65-19.36-6.49-4.55-5.31-10.37-9.65-14.3-15.31-1-1.4,3.16-6.26,5.1-9.8,12.54,5.87,18.33,26.69,38.21,10.63l-36.82-30.79,11.39-11.89,33.73,37.25c2.62-16.4,4.75-29.71,7.27-45.41-6.33-8.27-6.33-8.27,2.72-14.93,2,1.66,4.22,3.37,6.28,5.25,7,6.43,21.12,7.15,27.4.32s10.46-5.77,15.16,2.77c-8.69,5.32-5.77,11.74-2.9,20.19,3.12,9.16,1.54,19.87,2.1,32.07,10.72-10.71,20.25-20.32,29.9-29.82,7.89-7.77,8.14-7.68,15.66,3.13C324.81,202.63,312.9,213.08,300.4,224c16.25,9.7,16.72,9.61,29.77-3.39,8.19-8.16,8.75-8.11,16.57,3-7.14,6.61-14.18,14-22.23,20.08-2.76,2.09-8.07.93-14.67,1.44,8.7,8,17,15.45,25.19,23.12,5.11,4.81,10.14,9.74,14.85,14.93,10.76,11.86,10.76,28.28.25,38.51s-27.41,10.16-39.26-.14c-1.67-1.45-3.33-2.91-6.7-5.87.95,5.83,1.45,10,2.32,14,1.07,5.06,3.08,10.12-4.95,11.54-8.33,1.46-6.66-5.32-7.67-9.16-2.05-7.86-3.24-15.93-4.89-24.48-19.17,19.53-34,19.6-51.53-.15-1.86,8.9-4.19,16.91-5.07,25.08-1,9-4.74,11.07-13.69,6.37C219.53,332.4,220.43,325.32,221.46,317.17Zm35.63-91.9-1.88-.74c-23.63,23.06-47.38,46-70.73,69.34-2.39,2.39-2.46,7-3.89,11.5,2.57-.52,3.39-.44,3.75-.8,23-22.55,46.06-45,68.7-67.89C255.63,234.07,255.8,229.13,257.09,225.27Zm85.74,80.27,3.58-2.24c-2.94-4.82-5.12-10.36-9-14.33-13.29-13.75-27.34-26.79-40.76-40.44-8-8.12-15.32-16.87-22.95-25.34l-4.34,2.91c.94,3.21.88,7.36,3,9.47C295.66,259.07,319.29,282.26,342.83,305.54Zm-11.69,10.27L270.81,255.1C268.69,266.27,319.65,316.53,331.14,315.81Zm-137.35.48.44,1.43c4.26-2,9.37-3.2,12.63-6.27q23.31-21.94,45.63-44.89c2.58-2.66,2.92-7.44,4.3-11.24l-1.76,0Zm55.82-107.75c10.1-6.17,6.08-15.45,6.45-26C246.45,191,248.5,199.89,249.61,208.54Zm28.07,2c-1-10.06,3.35-20.1-8.07-27.35C270.72,193,265.05,203.15,277.68,210.49Zm-8,97.17c11.2-10.24,10.71-18.23,0-24ZM256.07,282.4c-9.91,9.33-9.54,17.69,0,23Z" transform="translate(-168.1 -158.5)"/></svg>