<svg width="917" height="296" viewBox="0 0 917 296" fill="none" xmlns="http://www.w3.org/2000/svg">
<path d="M17.5264 80.3567H66.0117V149.695H122.557V80.3567H171.042V262.145H122.557V186.155H66.0117V262.145H17.5264V80.3567Z" fill="white"/>
<g clip-path="url(#clip0_237_52)">
<path d="M308.341 198.111C317.927 208.049 327.001 217.473 336.354 227.187C325.526 243.267 312.141 253.929 295.898 259.755C257.439 273.568 216.274 254.259 197.649 213.967C179.117 173.86 188.435 124.711 219.876 96.7033C251.467 68.5768 295.898 70.0662 325.955 100.789C360.115 135.717 394.053 170.908 427.899 206.23C446.71 225.869 474.049 225.408 491.303 204.622C508.197 184.272 506.988 152.521 488.584 133.331C470.505 114.47 442.817 116.276 425.726 137.43C424.448 139.012 423.205 140.646 421.52 142.807C412.086 133.041 402.907 123.525 393.461 113.732C404.557 97.2964 418.267 86.4228 435.044 80.8212C480.404 65.664 526.728 95.0426 538.917 146.472C550.872 196.952 523.835 248.96 478.371 261.495C450.776 269.1 425.494 261.943 404.324 240.538C369.7 205.545 335.587 169.906 301.486 134.254C283.175 115.103 255.836 115.735 238.512 136.376C221.99 156.054 222.839 187.699 240.395 206.797C257.869 225.803 285.487 225.197 302.509 205.413C304.356 203.238 306.087 200.932 308.341 198.111Z" fill="white"/>
</g>
<path d="M572.593 78.5181H621.264V157.367L677.768 78.5181H732.217L665.183 162.375L739.151 261H678.667L621.264 176.373V261H572.593V78.5181ZM873.605 80.5728L870.009 118.199C862.561 115.032 855.412 112.677 848.563 111.136C841.715 109.51 835.08 108.696 828.659 108.696C818.813 108.696 811.108 110.28 805.543 113.448C800.064 116.53 797.325 120.81 797.325 126.29C797.325 130.142 798.737 133.524 801.562 136.435C804.388 139.26 808.625 141.614 814.276 143.498C816.159 144.097 818.856 144.953 822.366 146.066C843.256 152.829 857.125 158.779 863.974 163.916C870.395 168.882 875.103 174.575 878.1 180.996C881.096 187.331 882.594 194.779 882.594 203.34C882.594 223.459 875.917 238.826 862.561 249.442C849.206 259.973 829.857 265.238 804.516 265.238C795.356 265.238 786.152 264.596 776.906 263.312C767.746 262.027 758.628 260.101 749.553 257.533L753.663 216.824C762.224 220.677 770.528 223.63 778.576 225.685C786.709 227.654 794.371 228.639 801.562 228.639C811.151 228.639 818.728 226.841 824.292 223.245C829.857 219.649 832.64 214.77 832.64 208.605C832.64 200.986 823.736 194.094 805.929 187.93C801.648 186.475 798.352 185.319 796.041 184.463C778.661 178.213 766.248 170.979 758.799 162.76C751.351 154.456 747.627 143.883 747.627 131.041C747.627 112.72 754.176 98.6369 767.275 88.7915C780.374 78.9461 799.165 74.0234 823.65 74.0234C832.64 74.0234 841.286 74.5799 849.591 75.6929C857.895 76.7202 865.9 78.3468 873.605 80.5728Z" fill="white"/>
<defs>
<clipPath id="clip0_237_52">
<rect width="353.549" height="187.817" fill="white" transform="translate(188.18 76.6294)"/>
</clipPath>
</defs>
</svg>
